# xmcd
#
# Track frame offsets:
#	150
#	15480
#	32307
#	47752
#	65709
#	82977
#	101913
#	125605
#	142610
#	156848
#	178249
#
# Disc length: 2590 seconds
#
# Revision: 1
# Processed by: cddbd v1.5.2PL0 Copyright (c) Steve Scherf et al.
# Submitted via: audiograbber 1.83.01
#
DISCID=890a1c0b
DTITLE=Jesse Terry - Stay Here With Me
DYEAR=2009
DGENRE=Country
TTITLE0=Stay Here With Me
TTITLE1=Rattling Cage
TTITLE2=Feel That Way Again
TTITLE3=Don't Let Me Fall For You
TTITLE4=Deeper Wells
TTITLE5=Marina
TTITLE6=Awake At Last
TTITLE7=Barbed Wire
TTITLE8=Beekeeper
TTITLE9=This Should Be Home
TTITLE10=Second Dance
EXTD=
EXTT0=
EXTT1=
EXTT2=
EXTT3=
EXTT4=
EXTT5=
EXTT6=
EXTT7=
EXTT8=
EXTT9=
EXTT10=
PLAYORDER=
